<svg width="215" height="139" viewBox="0 0 215 139" fill="none" xmlns="http://www.w3.org/2000/svg">
<mask id="path-1-inside-1_7_360" fill="white">
<path d="M107.5 139C166.871 139 215 113.033 215 81C215 48.9675 166.871 23 107.5 23C95.8477 23 84.6285 24.0005 74.1211 25.8506C69.0079 16.8302 66.9444 5.96732 66.5576 0C64.3231 9.05139 64.4846 20.0138 65.1475 27.6758C26.8351 36.5452 0 57.0814 0 81C0 113.033 48.1294 139 107.5 139Z"/>
</mask>
<path d="M107.5 139C166.871 139 215 113.033 215 81C215 48.9675 166.871 23 107.5 23C95.8477 23 84.6285 24.0005 74.1211 25.8506C69.0079 16.8302 66.9444 5.96732 66.5576 0C64.3231 9.05139 64.4846 20.0138 65.1475 27.6758C26.8351 36.5452 0 57.0814 0 81C0 113.033 48.1294 139 107.5 139Z" fill="#F9FBFE"/>
<path d="M74.1211 25.8506L74.2945 26.8354L73.5993 26.9578L73.2511 26.3437L74.1211 25.8506ZM66.5576 0L65.5868 -0.239685L67.5555 -0.064682L66.5576 0ZM65.1475 27.6758L66.1437 27.5896L66.2185 28.4543L65.373 28.65L65.1475 27.6758ZM107.5 139V138C137.053 138 163.758 131.535 183.039 121.132C202.361 110.708 214 96.4731 214 81H215H216C216 97.5594 203.575 112.325 183.989 122.892C164.363 133.481 137.318 140 107.5 140V139ZM215 81H214C214 65.5269 202.361 51.2925 183.039 40.8679C163.758 30.465 137.053 24 107.5 24V23V22C137.318 22 164.363 28.5187 183.989 39.1077C203.575 49.675 216 64.4406 216 81H215ZM107.5 23V24C95.9045 24 84.7433 24.9957 74.2945 26.8354L74.1211 25.8506L73.9477 24.8657C84.5137 23.0054 95.7909 22 107.5 22V23ZM74.1211 25.8506L73.2511 26.3437C68.0425 17.1547 65.953 6.13316 65.5597 0.064682L66.5576 0L67.5555 -0.064682C67.9357 5.80145 69.9734 16.5056 74.9911 25.3575L74.1211 25.8506ZM66.5576 0L67.5285 0.239685C65.3329 9.13303 65.4843 19.9672 66.1437 27.5896L65.1475 27.6758L64.1512 27.762C63.4849 20.0605 63.3132 8.96976 65.5868 -0.239685L66.5576 0ZM65.1475 27.6758L65.373 28.65C46.3203 33.0608 30.1832 40.3599 18.8327 49.4742C7.47967 58.5905 1 69.4445 1 81H0H-1C-1 68.6369 5.93791 57.2635 17.5805 47.9147C29.2257 38.5639 45.6623 31.1602 64.9219 26.7015L65.1475 27.6758ZM0 81H1C1 96.4731 12.6394 110.708 31.9609 121.132C51.242 131.535 77.9474 138 107.5 138V139V140C77.682 140 50.6373 133.481 31.0112 122.892C11.4253 112.325 -1 97.5594 -1 81H0Z" fill="black" mask="url(#path-1-inside-1_7_360)"/>
</svg>
