<svg width="241" height="141" viewBox="0 0 241 141" fill="none" xmlns="http://www.w3.org/2000/svg">
<path d="M120.501 1C186.5 1 240.003 26.9675 240.003 59C240.003 91.0325 186.5 117 120.501 117C108.821 117 97.5317 116.185 86.8613 114.669C87.1317 124.676 90.5736 134.595 93.1074 139.78C85.5156 131.813 79.5006 119.878 76.6113 112.962C32.3284 104.471 1 83.5116 1 59C1 26.9675 54.5024 1.00009 120.501 1Z" fill="#F9FBFE"/>
<path d="M120.501 1V0.5V1ZM120.501 117V117.5V117ZM86.8613 114.669L86.9317 114.174L86.3455 114.091L86.3615 114.682L86.8613 114.669ZM93.1074 139.78L92.7454 140.125L93.5567 139.561L93.1074 139.78ZM76.6113 112.962L77.0727 112.769L76.9692 112.521L76.7055 112.471L76.6113 112.962ZM120.501 1V1.5C153.442 1.5 183.239 7.98136 204.783 18.4376C226.361 28.9105 239.503 43.283 239.503 59H240.003H240.503C240.503 42.6845 226.893 28.0569 205.22 17.538C183.512 7.00238 153.559 0.5 120.501 0.5V1ZM240.003 59H239.503C239.503 74.717 226.361 89.0895 204.783 99.5624C183.239 110.019 153.442 116.5 120.501 116.5V117V117.5C153.559 117.5 183.512 110.998 205.22 100.462C226.893 89.9431 240.503 75.3155 240.503 59H240.003ZM120.501 117V116.5C108.844 116.5 97.5783 115.687 86.9317 114.174L86.8613 114.669L86.791 115.164C97.4851 116.684 108.797 117.5 120.501 117.5V117ZM86.8613 114.669L86.3615 114.682C86.6343 124.779 90.1022 134.769 92.6582 140L93.1074 139.78L93.5567 139.561C91.045 134.421 87.629 124.572 87.3611 114.655L86.8613 114.669ZM93.1074 139.78L93.4694 139.435C85.9407 131.535 79.954 119.666 77.0727 112.769L76.6113 112.962L76.15 113.155C79.0472 120.09 85.0905 132.092 92.7454 140.125L93.1074 139.78ZM76.6113 112.962L76.7055 112.471C54.6107 108.234 35.7799 100.892 22.4865 91.5791C9.18543 82.2605 1.5 71.0251 1.5 59H1H0.5C0.5 71.4865 8.47879 82.9864 21.9127 92.3981C35.3542 101.815 54.3291 109.198 76.5172 113.453L76.6113 112.962ZM1 59H1.5C1.5 43.283 14.6414 28.9106 36.2193 18.4377C57.763 7.98142 87.5604 1.50004 120.501 1.5V1V0.5C87.4429 0.500045 57.4899 7.00244 35.7827 17.538C14.1098 28.057 0.5 42.6845 0.5 59H1Z" fill="black"/>
</svg>
