<svg width="157" height="20" viewBox="0 0 157 20" fill="none" xmlns="http://www.w3.org/2000/svg">
<g clip-path="url(#clip0_1_72)">
<path d="M157 9.78363H88.3271V10.2157H157V9.78363Z" fill="#E6D9A4"/>
<path d="M68.6733 9.78362H0V10.2157H68.6733V9.78362Z" fill="#E6D9A4"/>
<path d="M70.7308 12.2643C69.4768 12.2643 68.4563 11.2482 68.4563 9.99963C68.4563 8.75103 69.4768 7.73501 70.7308 7.73501C72.2959 7.73501 73.4169 9.81026 73.4639 9.89882L73.5174 9.99963L73.4639 10.1004C73.4169 10.189 72.2951 12.2635 70.7308 12.2635V12.2643ZM70.7308 8.16705C69.7161 8.16705 68.8902 8.98937 68.8902 9.99963C68.8902 11.0099 69.7161 11.8322 70.7308 11.8322C71.859 11.8322 72.7869 10.3978 73.0227 9.99963C72.7869 9.60143 71.859 8.16705 70.7308 8.16705Z" fill="#E6D9A4"/>
<path d="M86.2692 12.2643C84.7048 12.2643 83.5831 10.189 83.5361 10.1012L83.4826 10.0004L83.5361 9.89955C83.5831 9.81098 84.7048 7.73573 86.2692 7.73573C87.5232 7.73573 88.5437 8.75175 88.5437 10.0004C88.5437 11.249 87.5232 12.265 86.2692 12.265V12.2643ZM83.9773 9.99964C84.2131 10.3978 85.1409 11.8322 86.2692 11.8322C87.2838 11.8322 88.1098 11.0099 88.1098 9.99964C88.1098 8.98938 87.2838 8.16706 86.2692 8.16706C85.1409 8.16706 84.2131 9.60144 83.9773 9.99964Z" fill="#E6D9A4"/>
<path d="M70.7308 12.2643C69.4768 12.2643 68.4563 11.2482 68.4563 9.99963C68.4563 8.75103 69.4768 7.73501 70.7308 7.73501C72.2959 7.73501 73.4169 9.81026 73.4639 9.89882L73.5174 9.99963L73.4639 10.1004C73.4169 10.189 72.2951 12.2635 70.7308 12.2635V12.2643ZM70.7308 8.16705C69.7161 8.16705 68.8902 8.98937 68.8902 9.99963C68.8902 11.0099 69.7161 11.8322 70.7308 11.8322C71.859 11.8322 72.7869 10.3978 73.0227 9.99963C72.7869 9.60143 71.859 8.16705 70.7308 8.16705Z" fill="#E6D9A4"/>
<path d="M86.2692 12.2643C84.7048 12.2643 83.5831 10.189 83.5361 10.1012L83.4826 10.0004L83.5361 9.89955C83.5831 9.81098 84.7048 7.73573 86.2692 7.73573C87.5232 7.73573 88.5437 8.75175 88.5437 10.0004C88.5437 11.249 87.5232 12.265 86.2692 12.265V12.2643ZM83.9773 9.99964C84.2131 10.3978 85.1409 11.8322 86.2692 11.8322C87.2838 11.8322 88.1098 11.0099 88.1098 9.99964C88.1098 8.98938 87.2838 8.16706 86.2692 8.16706C85.1409 8.16706 84.2131 9.60144 83.9773 9.99964Z" fill="#E6D9A4"/>
<path d="M78.5004 5.03978L78.3991 4.9865C78.3102 4.93969 76.2258 3.82286 76.2258 2.26534C76.2258 1.01674 77.2463 0.000717163 78.5004 0.000717163C79.7544 0.000717163 80.7749 1.01674 80.7749 2.26534C80.7749 3.82358 78.6906 4.93969 78.6016 4.9865L78.5004 5.03978ZM78.5004 0.43204C77.4857 0.43204 76.6598 1.25436 76.6598 2.26462C76.6598 3.38794 78.1004 4.31179 78.5004 4.54653C78.9003 4.31179 80.3409 3.38794 80.3409 2.26462C80.3409 1.25436 79.515 0.43204 78.5004 0.43204Z" fill="#E6D9A4"/>
<path d="M78.5004 20C77.2463 20 76.2258 18.984 76.2258 17.7354C76.2258 16.1771 78.3102 15.061 78.3991 15.0142L78.5004 14.9609L78.6016 15.0142C78.6906 15.061 80.7749 16.1779 80.7749 17.7354C80.7749 18.984 79.7544 20 78.5004 20ZM78.5004 15.4535C78.1004 15.6882 76.6598 16.6121 76.6598 17.7354C76.6598 18.7456 77.4857 19.568 78.5004 19.568C79.515 19.568 80.3409 18.7456 80.3409 17.7354C80.3409 16.6121 78.9003 15.6882 78.5004 15.4535Z" fill="#E6D9A4"/>
<path d="M78.5004 15.4211C78.4447 15.4211 78.389 15.4002 78.347 15.3577L73.1196 10.153C73.0791 10.1127 73.056 10.0572 73.056 10.0004C73.056 9.94347 73.0791 9.88802 73.1196 9.8477L78.347 4.64302C78.428 4.56237 78.5727 4.56237 78.6537 4.64302L83.8811 9.8477C83.9216 9.88802 83.9447 9.94347 83.9447 10.0004C83.9447 10.0572 83.9216 10.1127 83.8811 10.153L78.6537 15.3577C78.611 15.4002 78.5561 15.4211 78.5004 15.4211ZM73.5796 9.99964L78.5004 14.899L83.4211 9.99964L78.5004 5.10027L73.5796 9.99964Z" fill="#E6D9A4"/>
<path d="M80.2423 13.6857C80.1866 13.6857 80.1309 13.6648 80.089 13.6223L74.8616 8.41761C74.7769 8.33337 74.7769 8.19655 74.8616 8.1123C74.9462 8.02806 75.0836 8.02806 75.1682 8.1123L80.3956 13.317C80.4802 13.4012 80.4802 13.538 80.3956 13.6223C80.353 13.6648 80.298 13.6857 80.2423 13.6857Z" fill="#E6D9A4"/>
<path d="M81.9855 11.951C81.9298 11.951 81.8742 11.9302 81.8322 11.8877L76.6048 6.68299C76.5202 6.59874 76.5202 6.46193 76.6048 6.37768C76.6894 6.29343 76.8268 6.29343 76.9114 6.37768L82.1389 11.5824C82.2235 11.6666 82.2235 11.8034 82.1389 11.8877C82.0962 11.9302 82.0412 11.951 81.9855 11.951Z" fill="#E6D9A4"/>
<path d="M75.0149 11.951C74.9592 11.951 74.9035 11.9302 74.8616 11.8877C74.7769 11.8034 74.7769 11.6666 74.8616 11.5824L80.089 6.37769C80.1736 6.29344 80.311 6.29344 80.3956 6.37769C80.4802 6.46193 80.4802 6.59875 80.3956 6.683L75.1682 11.8877C75.1255 11.9302 75.0706 11.951 75.0149 11.951Z" fill="#E6D9A4"/>
<path d="M76.7571 13.6857C76.7014 13.6857 76.6457 13.6648 76.6037 13.6223C76.5191 13.538 76.5191 13.4012 76.6037 13.317L81.8312 8.1123C81.9158 8.02806 82.0532 8.02806 82.1378 8.1123C82.2224 8.19655 82.2224 8.33337 82.1378 8.41761L76.9104 13.6223C76.8677 13.6648 76.8128 13.6857 76.7571 13.6857Z" fill="#E6D9A4"/>
<path d="M75.0113 8.48099C74.9556 8.48099 74.8999 8.46011 74.8579 8.41762L74.2562 7.81852C73.6871 7.25183 73.6871 6.33013 74.2562 5.76344C74.5318 5.48909 74.8984 5.33788 75.2883 5.33788C75.6781 5.33788 76.0447 5.48909 76.3203 5.76344L76.922 6.36254C77.0066 6.44679 77.0066 6.5836 76.922 6.66785C76.8374 6.7521 76.7 6.7521 76.6154 6.66785L76.0137 6.06875C75.8198 5.87577 75.5624 5.76992 75.2883 5.76992C75.0142 5.76992 74.7567 5.87649 74.5629 6.06875C74.1629 6.46695 74.1629 7.11501 74.5629 7.51321L75.1646 8.11231C75.2492 8.19656 75.2492 8.33338 75.1646 8.41762C75.1219 8.46011 75.0669 8.48099 75.0113 8.48099Z" fill="#E6D9A4"/>
<path d="M81.994 8.48099C81.9383 8.48099 81.8826 8.46011 81.8407 8.41762C81.756 8.33338 81.756 8.19656 81.8407 8.11231L82.4424 7.51321C82.6362 7.32023 82.7425 7.06389 82.7425 6.79098C82.7425 6.51807 82.6355 6.26173 82.4424 6.06875C82.2486 5.87577 81.9911 5.76992 81.717 5.76992C81.4429 5.76992 81.1854 5.87649 80.9916 6.06875L80.3899 6.66785C80.3053 6.7521 80.1679 6.7521 80.0832 6.66785C79.9986 6.5836 79.9986 6.44679 80.0832 6.36254L80.685 5.76344C80.9605 5.48909 81.3272 5.33788 81.717 5.33788C82.1068 5.33788 82.4735 5.48909 82.749 5.76344C83.0246 6.03779 83.1764 6.40286 83.1764 6.79098C83.1764 7.1791 83.0246 7.54418 82.749 7.81852L82.1473 8.41762C82.1046 8.46011 82.0497 8.48099 81.994 8.48099Z" fill="#E6D9A4"/>
<path d="M75.2883 14.6621C74.8984 14.6621 74.5318 14.5109 74.2562 14.2365C73.6871 13.6698 73.6871 12.7481 74.2562 12.1814L74.8579 11.5823C74.9426 11.4981 75.08 11.4981 75.1646 11.5823C75.2492 11.6666 75.2492 11.8034 75.1646 11.8876L74.5629 12.4867C74.1629 12.8849 74.1629 13.533 74.5629 13.9312C74.7567 14.1242 75.0142 14.23 75.2883 14.23C75.5624 14.23 75.8198 14.1235 76.0137 13.9312L76.6154 13.3321C76.7 13.2479 76.8374 13.2479 76.922 13.3321C77.0066 13.4164 77.0066 13.5532 76.922 13.6374L76.3203 14.2365C76.0447 14.5109 75.6781 14.6621 75.2883 14.6621Z" fill="#E6D9A4"/>
<path d="M81.718 14.6621C81.3282 14.6621 80.9615 14.5109 80.6859 14.2365L80.0842 13.6374C79.9996 13.5532 79.9996 13.4164 80.0842 13.3321C80.1688 13.2479 80.3062 13.2479 80.3909 13.3321L80.9926 13.9312C81.1864 14.1242 81.4439 14.2301 81.718 14.2301C81.9921 14.2301 82.2495 14.1235 82.4434 13.9312C82.6372 13.7383 82.7435 13.4819 82.7435 13.209C82.7435 12.9361 82.6365 12.6797 82.4434 12.4868L81.8416 11.8877C81.757 11.8034 81.757 11.6666 81.8416 11.5824C81.9263 11.4981 82.0637 11.4981 82.1483 11.5824L82.75 12.1815C83.0255 12.4558 83.1774 12.8209 83.1774 13.209C83.1774 13.5971 83.0255 13.9622 82.75 14.2365C82.4745 14.5109 82.1078 14.6621 81.718 14.6621Z" fill="#E6D9A4"/>
</g>
<defs>
<clipPath id="clip0_1_72">
<rect width="157" height="20" fill="white"/>
</clipPath>
</defs>
</svg>
